<mxfile host="app.diagrams.net" agent="Mozilla/5.0 (Windows NT 10.0; Win64; x64) AppleWebKit/537.36 (KHTML, like Gecko) Chrome/131.0.0.0 Safari/537.36" version="26.0.8">
  <diagram name="Сторінка-1" id="3BI2oseAMi1SdCCRbRWA">
    <mxGraphModel dx="1050" dy="603" grid="1" gridSize="10" guides="1" tooltips="1" connect="1" arrows="1" fold="1" page="1" pageScale="1" pageWidth="827" pageHeight="1169" math="0" shadow="0">
      <root>
        <mxCell id="0" />
        <mxCell id="1" parent="0" />
        <mxCell id="OT3GK1IK0ON0NBDD2vvj-4" value="" style="edgeStyle=orthogonalEdgeStyle;rounded=0;orthogonalLoop=1;jettySize=auto;html=1;" edge="1" parent="1" source="OT3GK1IK0ON0NBDD2vvj-2" target="OT3GK1IK0ON0NBDD2vvj-3">
          <mxGeometry relative="1" as="geometry" />
        </mxCell>
        <mxCell id="OT3GK1IK0ON0NBDD2vvj-2" value="Start" style="strokeWidth=2;html=1;shape=mxgraph.flowchart.start_1;whiteSpace=wrap;" vertex="1" parent="1">
          <mxGeometry x="364" y="40" width="100" height="60" as="geometry" />
        </mxCell>
        <mxCell id="OT3GK1IK0ON0NBDD2vvj-6" style="edgeStyle=orthogonalEdgeStyle;rounded=0;orthogonalLoop=1;jettySize=auto;html=1;exitX=0.5;exitY=1;exitDx=0;exitDy=0;" edge="1" parent="1" source="OT3GK1IK0ON0NBDD2vvj-3" target="OT3GK1IK0ON0NBDD2vvj-5">
          <mxGeometry relative="1" as="geometry" />
        </mxCell>
        <mxCell id="OT3GK1IK0ON0NBDD2vvj-3" value="in:&lt;div&gt;Name, bid&lt;/div&gt;" style="shape=parallelogram;html=1;strokeWidth=2;perimeter=parallelogramPerimeter;whiteSpace=wrap;rounded=1;arcSize=12;size=0.23;" vertex="1" parent="1">
          <mxGeometry x="364" y="140" width="100" height="60" as="geometry" />
        </mxCell>
        <mxCell id="OT3GK1IK0ON0NBDD2vvj-7" style="edgeStyle=orthogonalEdgeStyle;rounded=0;orthogonalLoop=1;jettySize=auto;html=1;exitX=1;exitY=0.5;exitDx=0;exitDy=0;exitPerimeter=0;entryX=1;entryY=0.5;entryDx=0;entryDy=0;" edge="1" parent="1" source="OT3GK1IK0ON0NBDD2vvj-5" target="OT3GK1IK0ON0NBDD2vvj-3">
          <mxGeometry relative="1" as="geometry">
            <Array as="points">
              <mxPoint x="540" y="260" />
              <mxPoint x="540" y="170" />
            </Array>
          </mxGeometry>
        </mxCell>
        <mxCell id="OT3GK1IK0ON0NBDD2vvj-11" style="edgeStyle=orthogonalEdgeStyle;rounded=0;orthogonalLoop=1;jettySize=auto;html=1;exitX=0;exitY=0.5;exitDx=0;exitDy=0;exitPerimeter=0;" edge="1" parent="1" source="OT3GK1IK0ON0NBDD2vvj-5" target="OT3GK1IK0ON0NBDD2vvj-10">
          <mxGeometry relative="1" as="geometry" />
        </mxCell>
        <mxCell id="OT3GK1IK0ON0NBDD2vvj-5" value="Does another person want&amp;nbsp;&lt;div&gt;make a bid?&lt;/div&gt;" style="strokeWidth=2;html=1;shape=mxgraph.flowchart.decision;whiteSpace=wrap;" vertex="1" parent="1">
          <mxGeometry x="314" y="220" width="200" height="80" as="geometry" />
        </mxCell>
        <mxCell id="OT3GK1IK0ON0NBDD2vvj-8" value="yes" style="text;html=1;align=center;verticalAlign=middle;whiteSpace=wrap;rounded=0;" vertex="1" parent="1">
          <mxGeometry x="540" y="230" width="60" height="30" as="geometry" />
        </mxCell>
        <mxCell id="OT3GK1IK0ON0NBDD2vvj-14" style="edgeStyle=orthogonalEdgeStyle;rounded=0;orthogonalLoop=1;jettySize=auto;html=1;exitX=0.5;exitY=1;exitDx=0;exitDy=0;entryX=0;entryY=0.75;entryDx=0;entryDy=0;" edge="1" parent="1" source="OT3GK1IK0ON0NBDD2vvj-10" target="OT3GK1IK0ON0NBDD2vvj-13">
          <mxGeometry relative="1" as="geometry" />
        </mxCell>
        <mxCell id="OT3GK1IK0ON0NBDD2vvj-10" value="Seek the biggest bid" style="rounded=1;whiteSpace=wrap;html=1;absoluteArcSize=1;arcSize=14;strokeWidth=2;" vertex="1" parent="1">
          <mxGeometry x="214" y="300" width="100" height="60" as="geometry" />
        </mxCell>
        <mxCell id="OT3GK1IK0ON0NBDD2vvj-12" value="no" style="text;html=1;align=center;verticalAlign=middle;whiteSpace=wrap;rounded=0;" vertex="1" parent="1">
          <mxGeometry x="254" y="230" width="60" height="30" as="geometry" />
        </mxCell>
        <mxCell id="OT3GK1IK0ON0NBDD2vvj-16" value="" style="edgeStyle=orthogonalEdgeStyle;rounded=0;orthogonalLoop=1;jettySize=auto;html=1;" edge="1" parent="1" source="OT3GK1IK0ON0NBDD2vvj-13" target="OT3GK1IK0ON0NBDD2vvj-15">
          <mxGeometry relative="1" as="geometry" />
        </mxCell>
        <mxCell id="OT3GK1IK0ON0NBDD2vvj-13" value="out:&lt;div&gt;winner&lt;/div&gt;" style="shape=parallelogram;html=1;strokeWidth=2;perimeter=parallelogramPerimeter;whiteSpace=wrap;rounded=1;arcSize=12;size=0.23;" vertex="1" parent="1">
          <mxGeometry x="364" y="340" width="100" height="60" as="geometry" />
        </mxCell>
        <mxCell id="OT3GK1IK0ON0NBDD2vvj-15" value="End" style="strokeWidth=2;html=1;shape=mxgraph.flowchart.terminator;whiteSpace=wrap;" vertex="1" parent="1">
          <mxGeometry x="364" y="435" width="100" height="60" as="geometry" />
        </mxCell>
      </root>
    </mxGraphModel>
  </diagram>
</mxfile>
